PathFileType	4	(X/Y/Z)	/Users/niels/Desktop/University/Third Semester/Perception and Action/Exam/Gymnastics Motion Tracking/Code for Gym Tracking/Scripts/Analyzed Data/Start Salto/st_salto_bad_id5_1_Sports2D/st_salto_bad_id5_1_Sports2D_px_person00.trc
DataRate	CameraRate	NumFrames	NumMarkers	Units	OrigDataRate	OrigDataStartFrame	OrigNumFrames
29.886363636363633	29.886363636363633	7	22	m	29.886363636363633	231	264
Frame#	Time	Hip			RHip			RKnee			RAnkle			RBigToe			RSmallToe			RHeel			LHip			LKnee			LAnkle			LBigToe			LSmallToe			LHeel			Neck			Head			Nose			RShoulder			RElbow			RWrist			LShoulder			LElbow			LWrist		
		X1	Y1	Z1	X2	Y2	Z2	X3	Y3	Z3	X4	Y4	Z4	X5	Y5	Z5	X6	Y6	Z6	X7	Y7	Z7	X8	Y8	Z8	X9	Y9	Z9	X10	Y10	Z10	X11	Y11	Z11	X12	Y12	Z12	X13	Y13	Z13	X14	Y14	Z14	X15	Y15	Z15	X16	Y16	Z16	X17	Y17	Z17	X18	Y18	Z18	X19	Y19	Z19	X20	Y20	Z20	X21	Y21	Z21	X22	Y22	Z22
231	7.729277566539925	1.4475955329382808	-0.603943287163329	0.0	1.4479573377328658	-0.6003480876551482	0.0	1.588807167012279	-0.7081804265634623	0.0	1.4483765396588004	-0.755576976268994	0.0	1.464186963886322	-0.8104521844915018	0.0	1.4561661851748993	-0.805424329571186	0.0	1.4296506734591872	-0.7583471279520417	0.0	1.4669459690600684	-0.5997004825273208	0.0	1.5871426557840076	-0.6465317249928175	0.0	1.5476607620525047	-0.7737975545798854	0.0	1.6041464936488674	-0.7965071276354758	0.0	1.5948957055294772	-0.7899214825728642	0.0	1.5351511094309003	-0.7896003047982594	0.0	1.5274379647995682	-0.4588248997200734	0.0	1.5590798696891024	-0.38545439836685136	0.0	1.5802004423717502	-0.4257384152891216	0.0	1.5353981643442522	-0.45807937946587585	0.0	1.6060141410430209	-0.4599028432149968	0.0	1.6977520383855083	-0.4421262623766785	0.0	1.5128325737700543	-0.4761555157387309	0.0	1.519035811567852	-0.5705685049897918	0.0	1.5622130584295981	-0.6252202984408955	0.0
232	7.762737642585552	1.451750956669139	-0.601575105535797	0.0	1.451192678560286	-0.5974562295947051	0.0	1.589253452312391	-0.7091167647473278	0.0	1.4483193513673593	-0.7555486434229778	0.0	1.4643145570494696	-0.8109934752824831	0.0	1.4562346760750495	-0.8055924064419541	0.0	1.4297801228684548	-0.7585168696431888	0.0	1.470025540472719	-0.597759790844854	0.0	1.58775818292358	-0.6460489172570059	0.0	1.5480488423762466	-0.7732223115827657	0.0	1.6052611369093108	-0.7964092441612602	0.0	1.5956295847565016	-0.7891211567139494	0.0	1.5355410898572395	-0.7888288371698787	0.0	1.5306822992887106	-0.45835459799279904	0.0	1.5642888731970457	-0.3854110939840965	0.0	1.5845011230123571	-0.4251354060641342	0.0	1.5387445264289503	-0.45656222383018946	0.0	1.6077428439885346	-0.45583824808508777	0.0	1.6998620491394232	-0.43642904117486836	0.0	1.517208217996167	-0.47664224576390857	0.0	1.5242741691818984	-0.5690299455536545	0.0	1.568886246924022	-0.6249498653564444	0.0
233	7.79619771863118	1.4556108325138153	-0.5992162052382662	0.0	1.4543222033037007	-0.5948782873176215	0.0	1.5895954698660908	-0.7097444412134813	0.0	1.448210592982791	-0.7556165133676288	0.0	1.4643730795160446	-0.8110076187461955	0.0	1.4562107696037816	-0.8053619222652145	0.0	1.4299321547662087	-0.7586164375663373	0.0	1.4723440254932358	-0.5961831837240351	0.0	1.588264304868488	-0.6453952061947084	0.0	1.548381914141642	-0.7728399612257582	0.0	1.605711593056516	-0.7962137143417344	0.0	1.5959110045969085	-0.7885967537681735	0.0	1.5359410676568817	-0.7883932070643639	0.0	1.5337099301039727	-0.4575580477786059	0.0	1.5694133420512406	-0.38528012688022106	0.0	1.5884876509654697	-0.42425293515514534	0.0	1.5418029225774124	-0.4550383266169554	0.0	1.6091355019796816	-0.4523580892432024	0.0	1.7021906602192807	-0.4309323605081635	0.0	1.5213164328777646	-0.47686562784975134	0.0	1.5298680882115272	-0.5675017350954845	0.0	1.575132801379019	-0.6248462825987966	0.0
234	7.829657794676807	1.4589520020343256	-0.596895064512458	0.0	1.4572343281191449	-0.5926424951152994	0.0	1.5898143049713152	-0.710210005531276	0.0	1.448016611728638	-0.7557840890668158	0.0	1.4643194876741576	-0.8103550154667666	0.0	1.4560042752972613	-0.8046385685410506	0.0	1.430044061910565	-0.7585738645648171	0.0	1.473863838793019	-0.5949236053103066	0.0	1.5887680881561934	-0.6447190959492693	0.0	1.5486781455543628	-0.7726825802033347	0.0	1.605074294285696	-0.7958427126582489	0.0	1.595600103378925	-0.7884302090214204	0.0	1.5363870818339367	-0.7883032741840992	0.0	1.5365935816903495	-0.4564490951069572	0.0	1.574430910606015	-0.3849482469490678	0.0	1.5921452419311153	-0.42321876209049725	0.0	1.544465750122724	-0.4534954010359625	0.0	1.610057321634919	-0.44949561854410236	0.0	1.7044429628396023	-0.4257537710216142	0.0	1.5253148808775523	-0.47682982270998536	0.0	1.5356945428459738	-0.5662293902645631	0.0	1.5812967255440602	-0.6250980881055924	0.0
235	7.8631178707224345	1.4618235024194697	-0.5945526212419319	0.0	1.460029514295485	-0.5905898160037151	0.0	1.5898489102713955	-0.7106835447203467	0.0	1.4476966211453994	-0.7560333177989557	0.0	1.4641286085185183	-0.8090905081377576	0.0	1.4555746805853178	-0.8034337229188623	0.0	1.4300320983121106	-0.7584385706353312	0.0	1.4747806298631576	-0.5938229687616801	0.0	1.5892999247870703	-0.6441696551049766	0.0	1.5489728634600815	-0.7726987254638858	0.0	1.6034228666331274	-0.795278650941121	0.0	1.5947723658326738	-0.788600853622394	0.0	1.5368672527044458	-0.7885032648260741	0.0	1.5394811543038105	-0.45502729243516843	0.0	1.5794592882111735	-0.38429576189418296	0.0	1.595647604382924	-0.42217537109206293	0.0	1.5467682681222272	-0.4518635511538546	0.0	1.610497543027029	-0.4471218165735128	0.0	1.7063993570616753	-0.4209002986641396	0.0	1.5293374864873706	-0.4764778579462599	0.0	1.5414984043213908	-0.5653439698952919	0.0	1.5875276725925	-0.6256432501968987	0.0
236	7.896577946768062	1.4644480189613849	-0.5920629719186523	0.0	1.462910291097427	-0.5884654102042555	0.0	1.5896189473687452	-0.7112867321829491	0.0	1.4472260955211884	-0.7563361825782303	0.0	1.4638124242747976	-0.8074900636527298	0.0	1.454946232618343	-0.8019139813554136	0.0	1.4298427965496454	-0.7583214822813805	0.0	1.4753995204087333	-0.5926411419174968	0.0	1.5898037424542002	-0.6438641773703553	0.0	1.5492828089908874	-0.7727907942932258	0.0	1.6012573066664768	-0.7945791766880772	0.0	1.593672647563788	-0.7890029470007073	0.0	1.537322180955844	-0.7888788883289735	0.0	1.5425196454590202	-0.4532778690122679	0.0	1.5846005802571137	-0.3832263147274571	0.0	1.5991875831087943	-0.4211373685068388	0.0	1.548866012441603	-0.45004479470797465	0.0	1.6106217795280102	-0.44500457160996143	0.0	1.7079535581125207	-0.4163266985197949	0.0	1.533420762608271	-0.47568057137017006	0.0	1.5469430781580913	-0.5647180278863067	0.0	1.593639113790653	-0.6261835873948604	0.0
237	7.930038022813689	1.4671257101047774	-0.5892869595142184	0.0	1.4660641152317018	-0.5860163032999769	0.0	1.5890833859822941	-0.7119743979748051	0.0	1.4465942269635388	-0.7566353668577801	0.0	1.4634215251189209	-0.8059549384985188	0.0	1.4541930157946326	-0.8003940058231125	0.0	1.429472987073665	-0.7582659733039699	0.0	1.4761496953872826	-0.5910862100223927	0.0	1.590304851215582	-0.6438202249419828	0.0	1.549590508423479	-0.7728590323438771	0.0	1.59919626604009	-0.7938481504629105	0.0	1.5926120753003281	-0.7894642846205749	0.0	1.5376585065557855	-0.7892585453511508	0.0	1.545798222922579	-0.4511818461147098	0.0	1.5898737951644952	-0.3816999754324796	0.0	1.6028748650586742	-0.41991294038104043	0.0	1.550985692741785	-0.4479479562225745	0.0	1.6107814456399359	-0.4428873966347949	0.0	1.7090230471709038	-0.41200008234566265	0.0	1.537534142157386	-0.4742804874359407	0.0	1.5517290221684599	-0.5639541990523236	0.0	1.599224200831368	-0.6263760886174741	0.0
